PathFileType	4	(X/Y/Z)	C:/Users/beibeiliu/ov580/test_trc/User2\sequence.44_training_dense_left.trc
DataRate	CameraRate	NumFrames	NumMarkers	Units	OrigDataRate	OrigDataStartFrame	OrigNumFrames
120	120	8	19	mm	120	1	75
Frame#	Time	ThumbCMC			ThumbMCP			ThumbIP			ThumbTip			IndexMCP			IndexPIP			IndexTip			MiddleMCP			MiddlePIP			MiddleTip			RingMCP			RingPIP			RingTip			PinkyMCP			PinkyPIP			PinkyTip			BackHand1			BackHand2			BackHand3	
		X0	Y0	Z0	X1	Y1	Z1	X2	Y2	Z2	X3	Y3	Z3	X4	Y4	Z4	X5	Y5	Z5	X6	Y6	Z6	X7	Y7	Z7	X8	Y8	Z8	X9	Y9	Z9	X10	Y10	Z10	X11	Y11	Z11	X12	Y12	Z12	X13	Y13	Z13	X14	Y14	Z14	X15	Y15	Z15	X16	Y16	Z16	X17	Y17	Z17	X18	Y18	Z18	
0	0	-177.743	5.05677	15.1332	-157.229	-0.154919	-2.98021	-128.503	0.10679	-22.4672	-107.134	-3.1541	-35.9936	-198.052	23.3123	-66.2844	-190.253	25.3942	-90.9997	-184.593	34.8999	-120.822	-226.588	25.2053	-73.883	-230.232	28.0025	-103.635	-235.509	33.3447	-133.245	-253.253	18.343	-68.3088	-260.849	19.6642	-88.7071	-269.379	23.5962	-115.357	-278.545	4.18452	-46.5665	-289.793	3.36438	-63.5596	-302	13.6221	-82.8112	-246.259	22.9468	-12.6929	-244.602	25.1004	25.3439	-211.199	27.7396	2.25784	
1	0.00833333	-180.035	5.12296	11.6645	-157.332	1.29507	-5.24537	-133.971	-0.9025	-26.0902	-108.809	-3.85653	-37.9827	-200.1	24.8795	-68.4348	-193.131	28.8281	-95.73	-188.32	35.8074	-123.158	-227.885	26.2932	-76.7832	-231.046	28.2895	-101.776	-237.728	33.8467	-133.866	-259.045	18.2509	-65.5776	-262.001	19.1787	-89.7461	-272.297	25.0492	-120.265	-276.064	3.31576	-43.8747	-294.752	4.98758	-66.5519	-305.563	13.406	-78.7938	-249.642	21.425	-9.04963	-245.005	26.273	22.3839	-211.854	27.4735	-0.128096	
2	0.0166667	-181.09	4.4381	12.833	-160.693	-0.097874	-4.15095	-130.826	-0.473343	-28.617	-113.795	-5.53632	-36.8836	-196.187	24.9217	-71.6911	-195.086	27.5249	-94.3369	-186.473	34.0663	-119.349	-231.676	26.2262	-73.4473	-233.036	28.0351	-103.146	-236.083	33.4912	-132.419	-255.289	18.2774	-64.5525	-265.401	19.1364	-93.7787	-274.956	23.4886	-118.97	-279.475	4.25361	-43.8323	-295.221	3.68496	-64.1794	-306.563	11.6575	-80.206	-251.57	22.1463	-9.35565	-245.22	24.7207	22.0557	-214.322	27.0783	2.52029	
3	0.025	-178.628	6.2691	8.00835	-161.335	0.398185	-7.80474	-134.042	-1.27183	-28.2175	-114.595	-6.09801	-35.6706	-200.154	24.8786	-71.6639	-191.507	28.9485	-96.9315	-192.899	33.0911	-119.635	-230.423	26.2059	-72.2154	-234.656	28.7394	-105.163	-240.032	33.4993	-133.084	-256.837	19.0284	-66.9468	-267.24	19.468	-91.7979	-272.796	23.3341	-114.425	-275.83	4.39995	-44.1168	-292.19	6.13133	-65.0718	-307.198	14.7049	-77.9104	-250.957	21.7456	-12.2508	-249.729	25.3907	21.5178	-213.898	28.1912	-0.67082	
4	0.0333333	-183.048	5.1437	11.2641	-159.699	1.44958	-9.33494	-132.045	-0.66393	-26.3089	-111.744	-4.94122	-36.3263	-198.108	25.3856	-68.1152	-194.08	28.2572	-92.6124	-188.606	34.0459	-118.718	-228.775	28.491	-77.9176	-232.266	29.2322	-107.745	-237.536	34.1687	-131.816	-261.386	18.4559	-65.0397	-266.651	21.6277	-93.2158	-276.29	25.287	-118.25	-281.991	4.79258	-43.9952	-290.746	6.4091	-64.8138	-307.522	16.407	-78.0642	-251.864	23.7764	-11.4417	-244.253	26.965	19.5301	-214.718	27.5653	-0.901063	
5	0.0416667	-182.316	6.07174	7.15676	-160.981	1.91957	-8.87243	-133.427	0.857821	-30.6378	-110.969	-3.69823	-37.7717	-197.175	25.5682	-66.9959	-196.144	29.4924	-97.2622	-189.184	34.1034	-119.381	-232.364	28.5004	-76.6007	-232.496	31.0729	-104.748	-240.358	35.7349	-132.943	-261.331	20.2238	-64.8858	-268.866	23.0898	-92.2656	-275.97	26.7955	-115.141	-279.367	7.47777	-44.5449	-289.682	7.49168	-63.392	-307.378	16.137	-78.9214	-247.736	24.1312	-8.43352	-246.027	26.3787	21.7415	-210.925	28.0588	0.182515	
6	0.05	-180.166	7.89603	8.43338	-158.572	4.53762	-8.23921	-135.482	1.42509	-26.4086	-113.961	-0.316059	-38.1497	-200.42	29.2909	-71.5126	-192.996	31.1684	-92.3565	-191.463	37.2233	-119.519	-232.785	31.9426	-76.0163	-231.57	34.6602	-101.708	-237.656	41.9769	-133.731	-255.586	23.5758	-63.1136	-266.001	26.4117	-89.3709	-272.151	34.231	-118.59	-281.136	8.92075	-43.8587	-294.637	11.8647	-66.6628	-307.548	20.2739	-80.5485	-246.564	23.202	-7.95386	-247.586	26.7294	24.0914	-214.203	30.4664	2.82981	
7	0.0583333	-181.523	10.321	14.0082	-160.442	8.09673	-4.58285	-131.909	11.4856	-27.1823	-111.748	8.37706	-35.0381	-199.908	35.0706	-68.7406	-192.286	38.698	-95.8814	-192.851	43.8573	-118.931	-231.126	37.5732	-74.3833	-232.665	41.8133	-101.158	-234.171	50.7621	-135.003	-255.905	28.2971	-63.9513	-268.339	31.0387	-89.0253	-273.408	37.6392	-114.517	-282.362	12.6917	-46.5812	-292.238	12.9379	-65.4001	-309.286	22.2646	-84.9409	-252.875	25.3059	-7.03692	-248.977	27.5937	22.6486	-212.585	33.83	2.85885	
